<svg width="32" height="31" viewBox="0 0 32 31" fill="none" xmlns="http://www.w3.org/2000/svg">
<g filter="url(#filter0_d_20_9735)">
<path d="M16.2856 18L18.0856 16.2L16.0285 14.1429H21.4285V11.5714H16.0285L18.0856 9.51429L16.2856 7.71429L11.1428 12.8571L16.2856 18ZM16.2856 25.7143C14.507 25.7143 12.8356 25.3768 11.2713 24.7018C9.70704 24.0268 8.34632 23.1107 7.18918 21.9536C6.03204 20.7964 5.11597 19.4357 4.44097 17.8714C3.76597 16.3071 3.42847 14.6357 3.42847 12.8571C3.42847 11.0786 3.76597 9.40714 4.44097 7.84286C5.11597 6.27857 6.03204 4.91786 7.18918 3.76071C8.34632 2.60357 9.70704 1.6875 11.2713 1.0125C12.8356 0.3375 14.507 0 16.2856 0C18.0642 0 19.7356 0.3375 21.2999 1.0125C22.8642 1.6875 24.2249 2.60357 25.382 3.76071C26.5392 4.91786 27.4553 6.27857 28.1303 7.84286C28.8053 9.40714 29.1428 11.0786 29.1428 12.8571C29.1428 14.6357 28.8053 16.3071 28.1303 17.8714C27.4553 19.4357 26.5392 20.7964 25.382 21.9536C24.2249 23.1107 22.8642 24.0268 21.2999 24.7018C19.7356 25.3768 18.0642 25.7143 16.2856 25.7143ZM16.2856 23.1429C19.157 23.1429 21.5892 22.1464 23.582 20.1536C25.5749 18.1607 26.5713 15.7286 26.5713 12.8571C26.5713 9.98571 25.5749 7.55357 23.582 5.56071C21.5892 3.56786 19.157 2.57143 16.2856 2.57143C13.4142 2.57143 10.982 3.56786 8.98918 5.56071C6.99632 7.55357 5.9999 9.98571 5.9999 12.8571C5.9999 15.7286 6.99632 18.1607 8.98918 20.1536C10.982 22.1464 13.4142 23.1429 16.2856 23.1429Z" fill="#2DA596"/>
</g>
<defs>
<filter id="filter0_d_20_9735" x="0.857038" y="0" width="30.8572" height="30.8572" filterUnits="userSpaceOnUse" color-interpolation-filters="sRGB">
<feFlood flood-opacity="0" result="BackgroundImageFix"/>
<feColorMatrix in="SourceAlpha" type="matrix" values="0 0 0 0 0 0 0 0 0 0 0 0 0 0 0 0 0 0 127 0" result="hardAlpha"/>
<feOffset dy="2.57143"/>
<feGaussianBlur stdDeviation="1.28571"/>
<feComposite in2="hardAlpha" operator="out"/>
<feColorMatrix type="matrix" values="0 0 0 0 0 0 0 0 0 0 0 0 0 0 0 0 0 0 0.25 0"/>
<feBlend mode="normal" in2="BackgroundImageFix" result="effect1_dropShadow_20_9735"/>
<feBlend mode="normal" in="SourceGraphic" in2="effect1_dropShadow_20_9735" result="shape"/>
</filter>
</defs>
</svg>
