<svg
                  width="99"
                  height="110"
                  viewBox="0 0 99 110"
                  fill="none"
                  xmlns="http://www.w3.org/2000/svg"
                >
                  <path
                    d="M43.7269 89.929L24.201 70.4031L32.1764 62.4278L43.7269 73.9783L66.8279 50.8773L74.8033 58.8526L43.7269 89.929Z"
                    fill="white"
                  />
                  <path
                    d="M95.7592 14.2456C93.6141 12.1005 91.029 11.0005 88.0039 11.0005H82.5037V0H71.5032V11.0005H27.5012V0H16.5007V11.0005H11.0005C7.97535 11.0005 5.39024 12.1005 3.24514 14.2456C1.10005 16.3907 0 18.9758 0 22.001V99.0044C0 102.03 1.10005 104.615 3.24514 106.76C5.39024 108.905 7.97535 110.005 11.0005 110.005H88.0039C91.029 110.005 93.6141 108.905 95.7592 106.76C97.9043 104.615 99.0044 102.03 99.0044 99.0044V22.001C99.0044 18.9758 97.9043 16.3907 95.7592 14.2456ZM88.0039 99.0044H11.0005V44.0019H88.0039V99.0044ZM88.0039 33.0015H11.0005V22.001H88.0039V33.0015Z"
                    fill="#30A596"
                  />
                </svg>