<svg width="360" height="199" viewBox="0 0 360 199" fill="none" xmlns="http://www.w3.org/2000/svg">
<path d="M12.224 197.629C12.224 197.629 72.3279 9.07991 207.73 2.73345C342.506 -3.58175 414.607 193.932 630.004 193.932C845.401 193.932 926.787 42.2816 926.787 42.2816" stroke="url(#paint0_linear_0_1542)" stroke-width="1.56223" stroke-miterlimit="10" stroke-linecap="round"/>
<path opacity="0.96" d="M11.458 185.054C11.458 185.054 71.5931 16.5909 208.55 10.6353C341.31 4.71084 418.789 182.013 630.95 181.748C838.664 181.599 920.847 41.7111 926.272 49.2143" stroke="url(#paint1_linear_0_1542)" stroke-width="1.56223" stroke-miterlimit="10" stroke-linecap="round"/>
<path opacity="0.91" d="M10.6921 172.478C10.6921 172.478 70.8507 24.094 209.379 18.5448C340.122 13.019 422.978 170.102 631.895 169.578C831.926 169.281 914.907 41.1482 925.763 56.1546" stroke="url(#paint2_linear_0_1542)" stroke-width="1.56223" stroke-miterlimit="10" stroke-linecap="round"/>
<path opacity="0.87" d="M9.92615 159.902C9.92615 159.902 70.116 31.5974 210.199 26.4467C338.919 21.3117 427.159 158.183 632.833 157.393C825.174 156.948 908.959 40.5778 925.248 63.0874" stroke="url(#paint3_linear_0_1542)" stroke-width="1.56223" stroke-miterlimit="10" stroke-linecap="round"/>
<path opacity="0.82" d="M9.16797 147.326C9.16797 147.326 69.3812 39.1083 211.028 34.3484C337.73 29.612 431.341 146.264 633.787 145.216C818.444 144.622 903.027 40.0071 924.739 70.0278" stroke="url(#paint4_linear_0_1542)" stroke-width="1.56223" stroke-miterlimit="10" stroke-linecap="round"/>
<path opacity="0.78" d="M8.40198 134.751C8.40198 134.751 68.6543 46.9242 211.856 42.2503C336.55 38.1783 435.53 134.352 634.733 133.031C811.707 132.289 897.087 39.4366 924.231 76.9605" stroke="url(#paint5_linear_0_1542)" stroke-width="1.56223" stroke-miterlimit="10" stroke-linecap="round"/>
<path opacity="0.74" d="M7.63611 122.175C7.63611 122.175 67.9197 54.4664 212.677 50.152C335.347 46.4942 439.704 122.433 635.671 120.854C804.962 119.963 891.147 38.8659 923.716 83.893" stroke="url(#paint6_linear_0_1542)" stroke-width="1.56223" stroke-miterlimit="10" stroke-linecap="round"/>
<path opacity="0.69" d="M6.87012 109.599C6.87012 109.599 67.1772 61.9931 213.498 58.0539C334.151 54.8025 443.885 110.514 636.608 108.669C798.217 107.63 885.199 38.2955 923.192 90.8258" stroke="url(#paint7_linear_0_1542)" stroke-width="1.56223" stroke-miterlimit="10" stroke-linecap="round"/>
<path opacity="0.65" d="M6.11194 97.0237C6.11194 97.0237 66.4503 69.512 214.326 65.9557C332.955 63.103 448.075 98.5947 637.562 96.4922C791.479 95.3042 879.267 37.7249 922.692 97.7662" stroke="url(#paint8_linear_0_1542)" stroke-width="1.56223" stroke-miterlimit="10" stroke-linecap="round"/>
<path opacity="0.61" d="M5.34607 84.4479C5.34607 84.4479 65.7078 77.015 215.155 73.8574C331.767 71.3955 452.256 86.6754 638.508 84.3072C784.742 82.9707 873.327 37.1542 922.184 104.691" stroke="url(#paint9_linear_0_1542)" stroke-width="1.56223" stroke-miterlimit="10" stroke-linecap="round"/>
<path opacity="0.56" d="M4.58008 71.8723C4.58008 71.8723 64.9731 84.5105 215.975 81.7593C330.563 79.6725 456.437 74.7563 639.445 72.1302C777.997 70.6452 867.379 36.5838 921.66 111.631" stroke="url(#paint10_linear_0_1542)" stroke-width="1.56223" stroke-miterlimit="10" stroke-linecap="round"/>
<path opacity="0.52" d="M3.82202 59.2967C3.82202 59.2967 64.2385 91.9982 216.804 89.6613C329.375 87.9418 460.627 62.8373 640.391 59.9454C771.26 58.3119 861.439 36.0133 921.152 118.564" stroke="url(#paint11_linear_0_1542)" stroke-width="1.56223" stroke-miterlimit="10" stroke-linecap="round"/>
<path opacity="0.48" d="M3.05591 46.721C3.05591 46.721 63.4958 99.1575 217.632 97.5709C328.179 95.9921 464.808 50.9338 641.345 47.7762C764.53 45.9942 855.514 35.4506 920.652 125.505" stroke="url(#paint12_linear_0_1542)" stroke-width="1.56223" stroke-miterlimit="10" stroke-linecap="round"/>
<path opacity="0.43" d="M2.29004 34.1453C2.29004 34.1453 62.7534 106.661 218.453 105.473C326.984 104.285 468.99 39.0146 642.283 35.5913C757.785 33.6607 849.567 34.88 920.128 132.437" stroke="url(#paint13_linear_0_1542)" stroke-width="1.56223" stroke-miterlimit="10" stroke-linecap="round"/>
<path opacity="0.39" d="M1.52417 21.5696C1.52417 21.5696 62.0188 114.164 219.274 113.375C325.78 112.585 473.171 27.0954 643.221 23.4142C751.032 21.3352 843.619 34.3173 919.612 139.378" stroke="url(#paint14_linear_0_1542)" stroke-width="1.56223" stroke-miterlimit="10" stroke-linecap="round"/>
<path opacity="0.34" d="M0.765991 8.99393C0.765991 8.99393 61.2841 121.675 220.102 121.276C324.592 120.878 477.353 15.1763 644.174 11.2371C744.303 9.00956 837.687 33.7467 919.112 146.318" stroke="url(#paint15_linear_0_1542)" stroke-width="1.56223" stroke-miterlimit="10" stroke-linecap="round"/>
<path opacity="0.3" d="M0 -3.58176C0 -3.58176 60.5493 129.178 220.93 129.178C381.312 129.178 678.071 -179.29 918.596 153.243" stroke="url(#paint16_linear_0_1542)" stroke-width="1.56223" stroke-miterlimit="10" stroke-linecap="round"/>
<defs>
<linearGradient id="paint0_linear_0_1542" x1="927.115" y1="100.111" x2="11.8957" y2="100.111" gradientUnits="userSpaceOnUse">
<stop stop-color="#5BE9FF" stop-opacity="0"/>
<stop offset="0.3" stop-color="#5BE9FF" stop-opacity="0.8"/>
<stop offset="0.7" stop-color="#5BE9FF" stop-opacity="0.8"/>
<stop offset="0.89" stop-color="#5BE9FF" stop-opacity="0"/>
</linearGradient>
<linearGradient id="paint1_linear_0_1542" x1="926.6" y1="97.7741" x2="11.1297" y2="97.7741" gradientUnits="userSpaceOnUse">
<stop stop-color="#5BE9FF" stop-opacity="0"/>
<stop offset="0.3" stop-color="#5BE9FF" stop-opacity="0.8"/>
<stop offset="0.7" stop-color="#5BE9FF" stop-opacity="0.8"/>
<stop offset="0.89" stop-color="#5BE9FF" stop-opacity="0"/>
</linearGradient>
<linearGradient id="paint2_linear_0_1542" x1="926.092" y1="95.4371" x2="10.3639" y2="95.4371" gradientUnits="userSpaceOnUse">
<stop stop-color="#5BE9FF" stop-opacity="0"/>
<stop offset="0.3" stop-color="#5BE9FF" stop-opacity="0.8"/>
<stop offset="0.7" stop-color="#5BE9FF" stop-opacity="0.8"/>
<stop offset="0.89" stop-color="#5BE9FF" stop-opacity="0"/>
</linearGradient>
<linearGradient id="paint3_linear_0_1542" x1="925.576" y1="93.1003" x2="9.59786" y2="93.1003" gradientUnits="userSpaceOnUse">
<stop stop-color="#5BE9FF" stop-opacity="0"/>
<stop offset="0.3" stop-color="#5BE9FF" stop-opacity="0.8"/>
<stop offset="0.7" stop-color="#5BE9FF" stop-opacity="0.8"/>
<stop offset="0.89" stop-color="#5BE9FF" stop-opacity="0"/>
</linearGradient>
<linearGradient id="paint4_linear_0_1542" x1="925.068" y1="90.771" x2="8.8397" y2="90.771" gradientUnits="userSpaceOnUse">
<stop stop-color="#5BE9FF" stop-opacity="0"/>
<stop offset="0.3" stop-color="#5BE9FF" stop-opacity="0.8"/>
<stop offset="0.7" stop-color="#5BE9FF" stop-opacity="0.8"/>
<stop offset="0.89" stop-color="#5BE9FF" stop-opacity="0"/>
</linearGradient>
<linearGradient id="paint5_linear_0_1542" x1="924.552" y1="88.4342" x2="8.07373" y2="88.4342" gradientUnits="userSpaceOnUse">
<stop stop-color="#5BE9FF" stop-opacity="0"/>
<stop offset="0.3" stop-color="#5BE9FF" stop-opacity="0.8"/>
<stop offset="0.7" stop-color="#5BE9FF" stop-opacity="0.8"/>
<stop offset="0.89" stop-color="#5BE9FF" stop-opacity="0"/>
</linearGradient>
<linearGradient id="paint6_linear_0_1542" x1="924.044" y1="86.0971" x2="7.30782" y2="86.0971" gradientUnits="userSpaceOnUse">
<stop stop-color="#5BE9FF" stop-opacity="0"/>
<stop offset="0.3" stop-color="#5BE9FF" stop-opacity="0.8"/>
<stop offset="0.7" stop-color="#5BE9FF" stop-opacity="0.8"/>
<stop offset="0.89" stop-color="#5BE9FF" stop-opacity="0"/>
</linearGradient>
<linearGradient id="paint7_linear_0_1542" x1="923.528" y1="83.7602" x2="6.54967" y2="83.7602" gradientUnits="userSpaceOnUse">
<stop stop-color="#5BE9FF" stop-opacity="0"/>
<stop offset="0.3" stop-color="#5BE9FF" stop-opacity="0.8"/>
<stop offset="0.7" stop-color="#5BE9FF" stop-opacity="0.8"/>
<stop offset="0.89" stop-color="#5BE9FF" stop-opacity="0"/>
</linearGradient>
<linearGradient id="paint8_linear_0_1542" x1="923.02" y1="81.7828" x2="5.78369" y2="81.7828" gradientUnits="userSpaceOnUse">
<stop stop-color="#5BE9FF" stop-opacity="0"/>
<stop offset="0.3" stop-color="#5BE9FF" stop-opacity="0.8"/>
<stop offset="0.7" stop-color="#5BE9FF" stop-opacity="0.8"/>
<stop offset="0.89" stop-color="#5BE9FF" stop-opacity="0"/>
</linearGradient>
<linearGradient id="paint9_linear_0_1542" x1="922.504" y1="86.2925" x2="5.01779" y2="86.2925" gradientUnits="userSpaceOnUse">
<stop stop-color="#5BE9FF" stop-opacity="0"/>
<stop offset="0.3" stop-color="#5BE9FF" stop-opacity="0.8"/>
<stop offset="0.7" stop-color="#5BE9FF" stop-opacity="0.8"/>
<stop offset="0.89" stop-color="#5BE9FF" stop-opacity="0"/>
</linearGradient>
<linearGradient id="paint10_linear_0_1542" x1="921.996" y1="87.3946" x2="4.25181" y2="87.3946" gradientUnits="userSpaceOnUse">
<stop stop-color="#5BE9FF" stop-opacity="0"/>
<stop offset="0.3" stop-color="#5BE9FF" stop-opacity="0.8"/>
<stop offset="0.7" stop-color="#5BE9FF" stop-opacity="0.8"/>
<stop offset="0.89" stop-color="#5BE9FF" stop-opacity="0"/>
</linearGradient>
<linearGradient id="paint11_linear_0_1542" x1="921.48" y1="87.2852" x2="3.49378" y2="87.2852" gradientUnits="userSpaceOnUse">
<stop stop-color="#5BE9FF" stop-opacity="0"/>
<stop offset="0.3" stop-color="#5BE9FF" stop-opacity="0.8"/>
<stop offset="0.7" stop-color="#5BE9FF" stop-opacity="0.8"/>
<stop offset="0.89" stop-color="#5BE9FF" stop-opacity="0"/>
</linearGradient>
<linearGradient id="paint12_linear_0_1542" x1="920.972" y1="85.9956" x2="2.72763" y2="85.9956" gradientUnits="userSpaceOnUse">
<stop stop-color="#5BE9FF" stop-opacity="0"/>
<stop offset="0.3" stop-color="#5BE9FF" stop-opacity="0.8"/>
<stop offset="0.7" stop-color="#5BE9FF" stop-opacity="0.8"/>
<stop offset="0.89" stop-color="#5BE9FF" stop-opacity="0"/>
</linearGradient>
<linearGradient id="paint13_linear_0_1542" x1="920.456" y1="83.2914" x2="1.96178" y2="83.2914" gradientUnits="userSpaceOnUse">
<stop stop-color="#5BE9FF" stop-opacity="0"/>
<stop offset="0.3" stop-color="#5BE9FF" stop-opacity="0.8"/>
<stop offset="0.7" stop-color="#5BE9FF" stop-opacity="0.8"/>
<stop offset="0.89" stop-color="#5BE9FF" stop-opacity="0"/>
</linearGradient>
<linearGradient id="paint14_linear_0_1542" x1="919.948" y1="80.4699" x2="1.19593" y2="80.4699" gradientUnits="userSpaceOnUse">
<stop stop-color="#5BE9FF" stop-opacity="0"/>
<stop offset="0.3" stop-color="#5BE9FF" stop-opacity="0.8"/>
<stop offset="0.7" stop-color="#5BE9FF" stop-opacity="0.8"/>
<stop offset="0.89" stop-color="#5BE9FF" stop-opacity="0"/>
</linearGradient>
<linearGradient id="paint15_linear_0_1542" x1="919.433" y1="77.6562" x2="0.437716" y2="77.6562" gradientUnits="userSpaceOnUse">
<stop stop-color="#5BE9FF" stop-opacity="0"/>
<stop offset="0.3" stop-color="#5BE9FF" stop-opacity="0.8"/>
<stop offset="0.7" stop-color="#5BE9FF" stop-opacity="0.8"/>
<stop offset="0.89" stop-color="#5BE9FF" stop-opacity="0"/>
</linearGradient>
<linearGradient id="paint16_linear_0_1542" x1="918.924" y1="74.8346" x2="-0.328257" y2="74.8346" gradientUnits="userSpaceOnUse">
<stop stop-color="#5BE9FF" stop-opacity="0"/>
<stop offset="0.3" stop-color="#5BE9FF" stop-opacity="0.8"/>
<stop offset="0.7" stop-color="#5BE9FF" stop-opacity="0.8"/>
<stop offset="0.89" stop-color="#5BE9FF" stop-opacity="0"/>
</linearGradient>
</defs>
</svg>
