<svg width="40" height="40" viewBox="0 0 40 40" fill="none" xmlns="http://www.w3.org/2000/svg">
<path d="M4.44444 40C3.22222 40 2.17593 39.5648 1.30556 38.6944C0.435185 37.8241 0 36.7778 0 35.5556V4.44444C0 3.22222 0.435185 2.17593 1.30556 1.30556C2.17593 0.435185 3.22222 0 4.44444 0H24.4444V4.44444H4.44444V35.5556H35.5556V15.5556H40V35.5556C40 36.7778 39.5648 37.8241 38.6944 38.6944C37.8241 39.5648 36.7778 40 35.5556 40H4.44444ZM31.1111 13.3333V8.88889H26.6667V4.44444H31.1111V0H35.5556V4.44444H40V8.88889H35.5556V13.3333H31.1111ZM6.66667 31.1111H33.3333L25 20L18.3333 28.8889L13.3333 22.2222L6.66667 31.1111Z" fill="white"/>
</svg>
