<svg width="489" height="158" viewBox="0 0 489 158" fill="none" xmlns="http://www.w3.org/2000/svg">
<g filter="url(#filter0_d_3_95)">
<path d="M203.545 0.216644C200.278 0.270643 196.228 0.243644 192.961 0.243644C190.882 0.243644 188.803 0.243644 186.454 0.243644C210.618 42.0659 234.675 83.6993 258.813 125.468C282.977 83.6453 307.034 42.0119 331.171 0.243644C330.658 0.243644 330.361 0.243644 330.064 0.243644C324.935 0.243644 319.076 0.270643 313.946 0.216644C313.946 0.216644 277.334 63.2336 259.38 94.3101C259.218 94.5801 259.056 94.8231 258.786 95.2281C258.489 94.7151 258.246 94.3101 258.003 93.9051C248.634 77.6783 239.265 61.4786 229.869 45.2519L203.545 0.216644Z" fill="white"/>
<path d="M104.375 103.625C104.024 103.652 103.673 103.679 103.322 103.679C98.2192 103.679 93.1163 103.679 88.0134 103.706C87.2844 103.706 86.8524 103.517 86.4204 102.896C75.4316 87.0472 64.4428 71.2255 53.4269 55.3767C53.238 55.1067 53.049 54.8367 52.86 54.5667C52.779 54.5938 52.698 54.6207 52.617 54.6477C52.617 62.8016 52.617 70.9825 52.617 79.1363C52.617 87.2632 52.617 95.4171 52.617 103.625C46.7851 103.625 41.0342 103.625 35.2563 103.625C35.2563 78.0023 35.2563 52.4338 35.2563 26.7842C35.6342 26.7572 35.9582 26.7302 36.3092 26.7302C41.4392 26.7302 46.5961 26.7572 51.726 26.7032C52.536 26.7032 52.995 26.9462 53.4269 27.6212C64.3618 44.1989 75.3236 60.7496 86.2854 77.3274C86.4474 77.5704 86.6094 77.8134 86.9874 78.0564C86.9874 77.7054 86.9874 77.3544 86.9874 77.0304C86.9874 60.7226 86.9874 44.4419 86.9874 28.1342C86.9874 26.5952 86.8524 26.7572 88.3914 26.7572C93.3053 26.7572 98.2192 26.7572 103.133 26.7572C103.511 26.7572 103.889 26.7572 104.348 26.7572C104.375 52.3798 104.375 77.9484 104.375 103.625Z" fill="white"/>
<path d="M122.033 65.1236C122.087 43.8209 139.42 26.5952 160.669 26.7032C182.134 26.8112 199.17 44.0369 199.062 65.5286C198.981 86.5882 181.594 103.787 160.453 103.679C139.15 103.571 121.979 86.3452 122.033 65.1236ZM160.588 88.4782C173.467 88.4242 183.862 78.0294 183.862 65.1776C183.862 52.2988 173.359 41.85 160.48 41.904C147.628 41.958 137.206 52.4068 137.233 65.2316C137.287 78.0834 147.79 88.5322 160.588 88.4782Z" fill="white"/>
<path d="M339.271 26.7303C354.121 52.4068 368.863 77.9484 383.685 103.625C383.253 103.652 382.929 103.679 382.632 103.679C377.503 103.679 372.346 103.679 367.216 103.706C366.514 103.706 366.136 103.463 365.785 102.869C357.172 87.9112 348.532 72.9805 339.892 58.0497C339.703 57.7257 339.514 57.4017 339.244 56.9697C338.434 58.3737 337.678 59.6427 336.949 60.9117C328.876 74.8705 320.804 88.8562 312.731 102.815C312.38 103.436 312.002 103.706 311.246 103.706C306.143 103.679 301.04 103.679 295.937 103.679C295.613 103.679 295.316 103.679 294.803 103.679C309.653 77.9754 324.421 52.4338 339.271 26.7303Z" fill="white"/>
<path d="M396.996 103.679C396.996 83.7803 396.996 64.0166 396.996 44.1449C389.248 44.1449 381.553 44.1449 373.777 44.1449C373.777 38.313 373.777 32.5891 373.777 26.7842C374.128 26.7572 374.479 26.7302 374.83 26.7302C395.403 26.7302 416.004 26.7302 436.578 26.7032C437.442 26.7032 437.739 26.8922 437.739 27.8102C437.685 32.9401 437.712 38.07 437.712 43.1999C437.712 43.4429 437.685 43.7129 437.658 44.0909C437.253 44.0909 436.875 44.0909 436.524 44.0909C429.612 44.0909 422.727 44.0909 415.815 44.0909C414.438 44.0909 414.438 44.0909 414.438 45.4139C414.438 64.4216 414.438 83.4023 414.438 102.41C414.438 103.679 414.438 103.679 413.196 103.679C408.174 103.679 403.179 103.679 398.157 103.679C397.833 103.679 397.482 103.679 396.996 103.679Z" fill="white"/>
<path d="M17.5447 103.598C11.7938 103.598 6.06986 103.598 0.291962 103.598C0.291962 78.0023 0.291962 52.4337 0.291962 26.7841C6.01587 26.7841 11.7398 26.7841 17.5447 26.7841C17.5447 52.3797 17.5447 77.9483 17.5447 103.598Z" fill="white"/>
<path d="M455.369 26.7572C461.174 26.7572 466.871 26.7572 472.649 26.7572C472.649 52.3798 472.649 77.9753 472.649 103.598C466.871 103.598 461.147 103.598 455.369 103.598C455.369 77.9753 455.369 52.4338 455.369 26.7572Z" fill="white"/>
<path d="M216.072 0.216644H233.244L258.705 44.1989L284.3 0.216644H301.769L258.921 74.4654L216.072 0.216644Z" fill="#2DA596"/>
<path d="M298.826 124.064H292.616V121.607H307.682V124.064H301.472V140.911H298.853V124.064H298.826Z" fill="#2DA596"/>
<path d="M310.436 121.607H322.91V124.064H313.055V129.814H322.208V132.271H313.055V138.454H323.396V140.911H310.436V121.607Z" fill="#2DA596"/>
<path d="M340.54 125.791C340 125.089 339.298 124.55 338.461 124.145C337.624 123.767 336.76 123.578 335.869 123.578C334.789 123.578 333.79 123.794 332.899 124.199C332.008 124.604 331.252 125.171 330.631 125.872C330.01 126.574 329.524 127.411 329.173 128.356C328.822 129.301 328.661 130.327 328.661 131.434C328.661 132.46 328.823 133.405 329.146 134.323C329.47 135.241 329.957 136.024 330.55 136.726C331.144 137.428 331.927 137.968 332.818 138.373C333.709 138.778 334.708 138.967 335.842 138.967C336.949 138.967 337.921 138.751 338.758 138.292C339.595 137.833 340.297 137.212 340.891 136.375L343.105 138.049C342.97 138.238 342.7 138.535 342.349 138.913C341.998 139.291 341.512 139.669 340.918 140.02C340.324 140.371 339.595 140.722 338.758 140.992C337.921 141.262 336.922 141.424 335.815 141.424C334.276 141.424 332.899 141.127 331.684 140.56C330.469 139.966 329.417 139.21 328.553 138.265C327.689 137.32 327.041 136.24 326.582 135.052C326.123 133.864 325.907 132.649 325.907 131.434C325.907 129.949 326.15 128.572 326.636 127.303C327.122 126.034 327.824 124.954 328.688 124.037C329.552 123.119 330.631 122.417 331.873 121.904C333.115 121.391 334.465 121.148 335.977 121.148C337.246 121.148 338.488 121.391 339.73 121.877C340.945 122.363 341.971 123.119 342.754 124.145L340.54 125.791Z" fill="#2DA596"/>
<path d="M346.291 121.607H349.72L360.358 137.482H360.412V121.607H363.031V140.911H359.71L348.964 125.036H348.91V140.911H346.291V121.607Z" fill="#2DA596"/>
<path d="M376.855 141.397C375.397 141.397 374.02 141.127 372.778 140.614C371.536 140.101 370.483 139.372 369.592 138.481C368.701 137.59 368.026 136.51 367.513 135.268C367.027 134.026 366.757 132.703 366.757 131.272C366.757 129.841 367 128.491 367.513 127.276C367.999 126.034 368.701 124.982 369.592 124.064C370.483 123.146 371.536 122.444 372.778 121.931C374.02 121.418 375.37 121.148 376.855 121.148C378.313 121.148 379.69 121.418 380.932 121.931C382.174 122.444 383.227 123.173 384.118 124.064C385.009 124.955 385.684 126.034 386.197 127.276C386.683 128.518 386.953 129.841 386.953 131.272C386.953 132.703 386.71 134.053 386.197 135.268C385.711 136.51 385.009 137.563 384.118 138.481C383.227 139.399 382.174 140.101 380.932 140.614C379.69 141.154 378.34 141.397 376.855 141.397ZM376.855 138.94C377.962 138.94 378.961 138.724 379.852 138.319C380.743 137.914 381.499 137.374 382.147 136.672C382.795 135.97 383.281 135.16 383.605 134.242C383.956 133.297 384.118 132.298 384.118 131.245C384.118 130.192 383.956 129.193 383.605 128.248C383.254 127.303 382.768 126.493 382.147 125.818C381.499 125.116 380.743 124.577 379.852 124.172C378.961 123.767 377.962 123.551 376.855 123.551C375.748 123.551 374.749 123.767 373.858 124.172C372.967 124.577 372.211 125.116 371.563 125.818C370.915 126.52 370.429 127.33 370.105 128.248C369.754 129.193 369.592 130.192 369.592 131.245C369.592 132.298 369.754 133.297 370.105 134.242C370.456 135.187 370.942 135.997 371.563 136.672C372.211 137.374 372.967 137.914 373.858 138.319C374.749 138.751 375.748 138.94 376.855 138.94Z" fill="#2DA596"/>
<path d="M390.678 121.607H393.297V138.454H402.153V140.911H390.678V121.607Z" fill="#2DA596"/>
<path d="M413.682 141.397C412.224 141.397 410.847 141.127 409.605 140.614C408.363 140.101 407.31 139.372 406.419 138.481C405.528 137.59 404.853 136.51 404.34 135.268C403.854 134.026 403.584 132.703 403.584 131.272C403.584 129.841 403.827 128.491 404.34 127.276C404.826 126.034 405.528 124.982 406.419 124.064C407.31 123.146 408.363 122.444 409.605 121.931C410.847 121.418 412.197 121.148 413.682 121.148C415.14 121.148 416.517 121.418 417.759 121.931C419.001 122.444 420.054 123.173 420.945 124.064C421.836 124.955 422.511 126.034 423.024 127.276C423.51 128.518 423.78 129.841 423.78 131.272C423.78 132.703 423.537 134.053 423.024 135.268C422.538 136.51 421.836 137.563 420.945 138.481C420.054 139.399 419.001 140.101 417.759 140.614C416.517 141.154 415.167 141.397 413.682 141.397ZM413.682 138.94C414.789 138.94 415.788 138.724 416.679 138.319C417.57 137.914 418.326 137.374 418.974 136.672C419.622 135.97 420.108 135.16 420.432 134.242C420.783 133.297 420.945 132.298 420.945 131.245C420.945 130.192 420.783 129.193 420.432 128.248C420.081 127.303 419.595 126.493 418.974 125.818C418.326 125.116 417.57 124.577 416.679 124.172C415.788 123.767 414.789 123.551 413.682 123.551C412.575 123.551 411.576 123.767 410.685 124.172C409.794 124.577 409.038 125.116 408.39 125.818C407.742 126.52 407.256 127.33 406.932 128.248C406.581 129.193 406.419 130.192 406.419 131.245C406.419 132.298 406.581 133.297 406.932 134.242C407.283 135.187 407.769 135.997 408.39 136.672C409.038 137.374 409.794 137.914 410.685 138.319C411.576 138.751 412.575 138.94 413.682 138.94Z" fill="#2DA596"/>
<path d="M443.949 130.111V139.615C443.463 139.912 442.95 140.155 442.329 140.371C441.708 140.587 441.114 140.776 440.466 140.938C439.818 141.1 439.17 141.208 438.495 141.289C437.82 141.37 437.199 141.397 436.632 141.397C434.985 141.397 433.527 141.127 432.258 140.587C430.989 140.047 429.882 139.291 429.018 138.373C428.154 137.455 427.452 136.375 426.993 135.133C426.534 133.918 426.291 132.622 426.291 131.245C426.291 129.814 426.534 128.464 427.047 127.25C427.533 126.008 428.235 124.955 429.126 124.037C430.017 123.119 431.07 122.417 432.312 121.904C433.554 121.391 434.904 121.121 436.389 121.121C438.171 121.121 439.629 121.337 440.763 121.796C441.897 122.228 442.842 122.849 443.598 123.632L441.735 125.63C440.925 124.874 440.088 124.334 439.197 124.037C438.306 123.74 437.361 123.578 436.389 123.578C435.282 123.578 434.283 123.794 433.392 124.199C432.501 124.604 431.745 125.144 431.097 125.846C430.449 126.548 429.963 127.358 429.639 128.275C429.288 129.22 429.126 130.219 429.126 131.272C429.126 132.352 429.315 133.378 429.693 134.323C430.071 135.268 430.611 136.078 431.286 136.753C431.961 137.428 432.744 137.995 433.662 138.373C434.58 138.751 435.552 138.967 436.632 138.967C437.55 138.967 438.441 138.886 439.278 138.697C440.115 138.535 440.817 138.265 441.384 137.941V132.568H437.118V130.111H443.949Z" fill="#2DA596"/>
<path d="M448.728 121.607H451.346V140.911H448.728V121.607Z" fill="#2DA596"/>
<path d="M462.362 121.607H464.738L473 140.911H469.949L468.005 136.132H458.825L456.908 140.911H453.857L462.362 121.607ZM467.06 133.837L463.469 124.982H463.415L459.77 133.837H467.06Z" fill="#2DA596"/>
</g>
<defs>
<filter id="filter0_d_3_95" x="0.291962" y="0.216644" width="488.708" height="157.208" filterUnits="userSpaceOnUse" color-interpolation-filters="sRGB">
<feFlood flood-opacity="0" result="BackgroundImageFix"/>
<feColorMatrix in="SourceAlpha" type="matrix" values="0 0 0 0 0 0 0 0 0 0 0 0 0 0 0 0 0 0 127 0" result="hardAlpha"/>
<feOffset dx="8" dy="8"/>
<feGaussianBlur stdDeviation="4"/>
<feComposite in2="hardAlpha" operator="out"/>
<feColorMatrix type="matrix" values="0 0 0 0 0 0 0 0 0 0 0 0 0 0 0 0 0 0 0.25 0"/>
<feBlend mode="normal" in2="BackgroundImageFix" result="effect1_dropShadow_3_95"/>
<feBlend mode="normal" in="SourceGraphic" in2="effect1_dropShadow_3_95" result="shape"/>
</filter>
</defs>
</svg>
