<svg
                  width="127"
                  height="128"
                  viewBox="0 0 127 128"
                  fill="none"
                  xmlns="http://www.w3.org/2000/svg"
                >
                  <path
                    d="M63.5 70.1599C57.277 70.1599 52.0065 68.0009 47.6885 63.7464C43.3705 59.4919 41.275 54.2214 41.275 47.9349C41.275 41.6484 43.434 36.4414 47.6885 32.1234C51.943 27.8054 57.2135 25.7099 63.5 25.7099C69.7865 25.7099 74.9935 27.8689 79.3115 32.1234C83.6295 36.3779 85.725 41.6484 85.725 47.9349C85.725 54.2214 83.566 59.4284 79.3115 63.7464C75.057 68.0644 69.7865 70.1599 63.5 70.1599Z"
                    fill="#30A596"
                  />
                  <path
                    d="M121.983 39.0449C118.618 31.2979 114.109 24.6304 108.394 18.9154C102.679 13.2004 95.9485 8.69191 88.265 5.32641C80.518 2.02441 72.263 0.309906 63.5 0.309906C54.737 0.309906 46.482 1.96091 38.735 5.32641C30.988 8.69191 24.3205 13.2004 18.6055 18.9154C12.8905 24.6304 8.382 31.3614 5.0165 39.0449C1.7145 46.7919 0 55.0469 0 63.8099C0 72.5729 1.651 80.8279 5.0165 88.5749C8.382 96.3219 12.8905 102.989 18.6055 108.704C24.3205 114.419 31.0515 118.928 38.735 122.293C46.482 125.595 54.737 127.31 63.5 127.31C72.263 127.31 80.518 125.659 88.265 122.293C96.012 118.928 102.679 114.419 108.394 108.704C114.109 102.989 118.618 96.2584 121.983 88.5749C125.285 80.8279 127 72.5729 127 63.8099C127 55.0469 125.349 46.7919 121.983 39.0449ZM79.375 112.133C74.422 113.784 69.088 114.61 63.5 114.61C57.912 114.61 52.578 113.784 47.625 112.133C42.672 110.482 38.1 108.133 33.9725 105.085C38.1 102.037 42.672 99.6874 47.625 98.0364C52.578 96.3854 57.912 95.5599 63.5 95.5599C69.088 95.5599 74.422 96.3854 79.375 98.0364C84.328 99.6874 88.9 102.037 93.0275 105.085C88.9 108.133 84.328 110.482 79.375 112.133ZM111.188 81.4629C109.093 86.9874 106.235 91.8769 102.552 96.1949C97.155 92.0674 91.1225 88.8289 84.455 86.4159C77.7875 84.0029 70.8025 82.8599 63.5 82.8599C56.1975 82.8599 49.2125 84.0664 42.545 86.4159C35.8775 88.7654 29.845 92.0674 24.4475 96.1949C20.7645 91.8769 17.8435 86.9239 15.8115 81.4629C13.716 75.9384 12.7 70.0964 12.7 63.8099C12.7 49.7129 17.653 37.7749 27.559 27.8689C37.465 17.9629 49.4665 13.0099 63.5 13.0099C77.5335 13.0099 89.535 17.9629 99.441 27.8689C109.347 37.7749 114.3 49.7764 114.3 63.8099C114.3 70.0329 113.284 75.9384 111.188 81.4629Z"
                    fill="white"
                  />
                </svg>